<svg xmlns="http://www.w3.org/2000/svg" width="160" height="56" viewBox="0 0 126 40" fill="none">
<path fillRule="evenodd" clipRule="evenodd" d="M33.1706 26.6977L22.6655 20.631L33.1561 14.5894L38.1909 17.5645L38.4159 23.6769L33.1706 26.6977Z" fill="#1a1a1a"/>
<path fillRule="evenodd" clipRule="evenodd" d="M22.6398 32.7652L22.6544 20.6569L33.145 26.6985L33.0794 32.5355L27.8852 35.786L22.6398 32.7652Z" fill="#2AB4E7"/>
<path fillRule="evenodd" clipRule="evenodd" d="M10.8291 27.2992L21.3488 21.2576V33.3408L16.2483 36.2027L10.8291 33.3408V27.2992Z" fill="#1a1a1a"/>
<path fillRule="evenodd" clipRule="evenodd" d="M11.448 13.3443L21.9532 19.411L11.4626 25.4526L6.42771 22.4775L6.20273 16.3651L11.448 13.3443Z" fill="#2AB4E7"/>
<path fillRule="evenodd" clipRule="evenodd" d="M32.5117 13.3903L21.9921 19.4319L21.9921 7.34863L27.0925 4.4868L32.5117 7.34863L32.5117 13.3903Z" fill="#2AB4E7"/>
<path fillRule="evenodd" clipRule="evenodd" d="M21.9617 7.23504L21.9472 19.3434L11.4566 13.3017L11.5222 7.46476L16.7164 4.21423L21.9617 7.23504Z" fill="#1a1a1a"/>
<path d="M59.8679 14.0347H54.0247V30.2052H50.9924V14.0347H45.1362V11.502H59.8679V14.0347Z" fill="#1a1a1a"/>
<path d="M67.7701 22.0875C67.7701 21.6199 67.7007 21.1869 67.5619 20.7886C67.4317 20.3817 67.2365 20.031 66.9762 19.7366C66.716 19.4335 66.3906 19.1997 66.0002 19.0352C65.6185 18.862 65.176 18.7754 64.6728 18.7754C63.6577 18.7754 62.8595 19.0655 62.2783 19.6457C61.697 20.2258 61.3282 21.0397 61.1721 22.0875H67.7701ZM61.094 23.8019C61.1287 24.5553 61.2458 25.209 61.4454 25.7632C61.6449 26.3087 61.9095 26.7633 62.2392 27.127C62.5776 27.4906 62.9767 27.7634 63.4365 27.9452C63.905 28.1184 64.4255 28.205 64.9981 28.205C65.5447 28.205 66.0175 28.1444 66.4166 28.0232C66.8157 27.8933 67.1628 27.7547 67.4577 27.6075C67.7527 27.4517 68.0043 27.3131 68.2125 27.1919C68.4208 27.062 68.6116 26.9971 68.7852 26.9971C69.0107 26.9971 69.1842 27.0837 69.3057 27.2568L70.0995 28.2829C69.7699 28.6726 69.3968 29.0016 68.9804 29.27C68.5639 29.5385 68.1214 29.7593 67.653 29.9324C67.1845 30.097 66.7029 30.2139 66.2084 30.2831C65.7139 30.3611 65.2324 30.4 64.7639 30.4C63.8442 30.4 62.9897 30.2485 62.2002 29.9454C61.4193 29.6337 60.7383 29.1791 60.157 28.5817C59.5844 27.9842 59.1332 27.2439 58.8036 26.3606C58.4826 25.4774 58.3221 24.46 58.3221 23.3084C58.3221 22.3905 58.4652 21.5333 58.7515 20.7367C59.0465 19.9401 59.4629 19.2473 60.0008 18.6585C60.5474 18.0697 61.2068 17.6065 61.9789 17.2688C62.7598 16.9224 63.6404 16.7493 64.6207 16.7493C65.4363 16.7493 66.1911 16.8835 66.8851 17.1519C67.5792 17.4117 68.1778 17.797 68.681 18.3079C69.1842 18.8187 69.5747 19.4465 69.8523 20.1912C70.1386 20.9272 70.2817 21.7671 70.2817 22.7109C70.2817 23.1439 70.234 23.4339 70.1386 23.5811C70.0432 23.7283 69.8696 23.8019 69.618 23.8019H61.094Z" fill="#1a1a1a"/>
<path d="M81.0767 19.3599C81.0073 19.4811 80.9292 19.5677 80.8424 19.6197C80.7557 19.6716 80.6472 19.6976 80.5171 19.6976C80.3696 19.6976 80.2091 19.6543 80.0356 19.5677C79.8621 19.4725 79.6582 19.3686 79.4239 19.256C79.1897 19.1434 78.9121 19.0439 78.591 18.9573C78.2787 18.862 77.91 18.8144 77.4849 18.8144C77.1378 18.8144 76.8212 18.8577 76.5349 18.9443C76.2572 19.0222 76.0187 19.1391 75.8191 19.295C75.6282 19.4422 75.4807 19.6197 75.3766 19.8275C75.2725 20.0267 75.2205 20.2431 75.2205 20.4769C75.2205 20.7886 75.3159 21.0484 75.5068 21.2562C75.6976 21.464 75.9492 21.6459 76.2616 21.8017C76.5739 21.9489 76.9296 22.0831 77.3287 22.2044C77.7278 22.3256 78.1356 22.4555 78.552 22.594C78.9684 22.7326 79.3762 22.8927 79.7753 23.0746C80.1744 23.2564 80.5301 23.4816 80.8424 23.75C81.1548 24.0097 81.4064 24.3301 81.5972 24.7111C81.7881 25.0835 81.8835 25.538 81.8835 26.0749C81.8835 26.6983 81.7708 27.2742 81.5452 27.8024C81.3196 28.3305 80.9899 28.7895 80.5561 29.1791C80.1223 29.5688 79.5801 29.8718 78.9294 30.0883C78.2874 30.3048 77.5499 30.413 76.7171 30.413C76.2572 30.413 75.8104 30.3697 75.3766 30.2831C74.9515 30.2052 74.5438 30.097 74.1533 29.9584C73.7716 29.8112 73.4116 29.638 73.0732 29.4389C72.7435 29.2397 72.4485 29.0233 72.1883 28.7895L72.8389 27.7244C72.917 27.5945 73.0125 27.495 73.1253 27.4257C73.2467 27.3478 73.3942 27.3088 73.5677 27.3088C73.7499 27.3088 73.9278 27.3694 74.1013 27.4906C74.2835 27.6032 74.4917 27.7288 74.726 27.8673C74.9689 28.0058 75.2595 28.1357 75.5979 28.2569C75.9362 28.3695 76.357 28.4258 76.8602 28.4258C77.2767 28.4258 77.6367 28.3782 77.9404 28.2829C78.244 28.179 78.4956 28.0405 78.6952 27.8673C78.8947 27.6941 79.0422 27.4993 79.1376 27.2828C79.2331 27.0577 79.2808 26.8196 79.2808 26.5685C79.2808 26.2308 79.1853 25.9537 78.9945 25.7372C78.8036 25.5207 78.5477 25.3346 78.2267 25.1787C77.9143 25.0228 77.5543 24.8843 77.1465 24.7631C76.7474 24.6418 76.3397 24.512 75.9232 24.3734C75.5068 24.2349 75.0947 24.0747 74.6869 23.8929C74.2878 23.711 73.9278 23.4816 73.6068 23.2045C73.2944 22.9187 73.0428 22.5767 72.852 22.1784C72.6611 21.7714 72.5657 21.2779 72.5657 20.6977C72.5657 20.1695 72.6698 19.6673 72.878 19.1911C73.0949 18.7148 73.4072 18.2949 73.815 17.9312C74.2314 17.5675 74.739 17.2818 75.3376 17.074C75.9449 16.8575 76.6433 16.7493 77.4328 16.7493C78.3264 16.7493 79.1376 16.8921 79.8664 17.1779C80.5952 17.4636 81.2068 17.8533 81.7013 18.3468L81.0767 19.3599Z" fill="#1a1a1a"/>
<path d="M92.6986 19.3599C92.6292 19.4811 92.5511 19.5677 92.4644 19.6197C92.3776 19.6716 92.2692 19.6976 92.139 19.6976C91.9915 19.6976 91.831 19.6543 91.6575 19.5677C91.484 19.4725 91.2801 19.3686 91.0459 19.256C90.8116 19.1434 90.534 19.0439 90.213 18.9573C89.9007 18.862 89.5319 18.8144 89.1068 18.8144C88.7598 18.8144 88.4431 18.8577 88.1568 18.9443C87.8792 19.0222 87.6406 19.1391 87.441 19.295C87.2502 19.4422 87.1027 19.6197 86.9986 19.8275C86.8945 20.0267 86.8424 20.2431 86.8424 20.4769C86.8424 20.7886 86.9378 21.0484 87.1287 21.2562C87.3196 21.464 87.5712 21.6459 87.8835 21.8017C88.1958 21.9489 88.5516 22.0831 88.9506 22.2044C89.3497 22.3256 89.7575 22.4555 90.1739 22.594C90.5904 22.7326 90.9981 22.8927 91.3972 23.0746C91.7963 23.2564 92.152 23.4816 92.4644 23.75C92.7767 24.0097 93.0283 24.3301 93.2192 24.7111C93.41 25.0835 93.5055 25.538 93.5055 26.0749C93.5055 26.6983 93.3927 27.2742 93.1671 27.8024C92.9415 28.3305 92.6119 28.7895 92.1781 29.1791C91.7443 29.5688 91.2021 29.8718 90.5513 30.0883C89.9093 30.3048 89.1719 30.413 88.339 30.413C87.8792 30.413 87.4324 30.3697 86.9986 30.2831C86.5735 30.2052 86.1657 30.097 85.7753 29.9584C85.3935 29.8112 85.0335 29.638 84.6951 29.4389C84.3654 29.2397 84.0705 29.0233 83.8102 28.7895L84.4609 27.7244C84.539 27.5945 84.6344 27.495 84.7472 27.4257C84.8686 27.3478 85.0161 27.3088 85.1897 27.3088C85.3718 27.3088 85.5497 27.3694 85.7232 27.4906C85.9054 27.6032 86.1136 27.7288 86.3479 27.8673C86.5908 28.0058 86.8815 28.1357 87.2198 28.2569C87.5582 28.3695 87.9789 28.4258 88.4821 28.4258C88.8986 28.4258 89.2586 28.3782 89.5623 28.2829C89.8659 28.179 90.1175 28.0405 90.3171 27.8673C90.5166 27.6941 90.6641 27.4993 90.7596 27.2828C90.855 27.0577 90.9027 26.8196 90.9027 26.5685C90.9027 26.2308 90.8073 25.9537 90.6164 25.7372C90.4255 25.5207 90.1696 25.3346 89.8486 25.1787C89.5363 25.0228 89.1762 24.8843 88.7685 24.7631C88.3694 24.6418 87.9616 24.512 87.5452 24.3734C87.1287 24.2349 86.7166 24.0747 86.3088 23.8929C85.9098 23.711 85.5497 23.4816 85.2287 23.2045C84.9164 22.9187 84.6648 22.5767 84.4739 22.1784C84.283 21.7714 84.1876 21.2779 84.1876 20.6977C84.1876 20.1695 84.2917 19.6673 84.4999 19.1911C84.7168 18.7148 85.0292 18.2949 85.4369 17.9312C85.8534 17.5675 86.3609 17.2818 86.9595 17.074C87.5668 16.8575 88.2653 16.7493 89.0548 16.7493C89.9484 16.7493 90.7596 16.8921 91.4883 17.1779C92.2171 17.4636 92.8288 17.8533 93.3233 18.3468L92.6986 19.3599Z" fill="#1a1a1a"/>
<path d="M105.101 22.0875C105.101 21.6199 105.032 21.1869 104.893 20.7886C104.763 20.3817 104.568 20.031 104.308 19.7366C104.047 19.4335 103.722 19.1997 103.332 19.0352C102.95 18.862 102.507 18.7754 102.004 18.7754C100.989 18.7754 100.191 19.0655 99.6096 19.6457C99.0283 20.2258 98.6595 21.0397 98.5034 22.0875H105.101ZM98.4253 23.8019C98.46 24.5553 98.5771 25.209 98.7767 25.7632C98.9762 26.3087 99.2408 26.7633 99.5705 27.127C99.9089 27.4906 100.308 27.7634 100.768 27.9452C101.236 28.1184 101.757 28.205 102.329 28.205C102.876 28.205 103.349 28.1444 103.748 28.0232C104.147 27.8933 104.494 27.7547 104.789 27.6075C105.084 27.4517 105.336 27.3131 105.544 27.1919C105.752 27.062 105.943 26.9971 106.116 26.9971C106.342 26.9971 106.516 27.0837 106.637 27.2568L107.431 28.2829C107.101 28.6726 106.728 29.0016 106.312 29.27C105.895 29.5385 105.453 29.7593 104.984 29.9324C104.516 30.097 104.034 30.2139 103.54 30.2831C103.045 30.3611 102.564 30.4 102.095 30.4C101.176 30.4 100.321 30.2485 99.5315 29.9454C98.7506 29.6337 98.0696 29.1791 97.4883 28.5817C96.9157 27.9842 96.4646 27.2439 96.1349 26.3606C95.8139 25.4774 95.6534 24.46 95.6534 23.3084C95.6534 22.3905 95.7965 21.5333 96.0828 20.7367C96.3778 19.9401 96.7942 19.2473 97.3321 18.6585C97.8787 18.0697 98.5381 17.6065 99.3102 17.2688C100.091 16.9224 100.972 16.7493 101.952 16.7493C102.768 16.7493 103.522 16.8835 104.216 17.1519C104.911 17.4117 105.509 17.797 106.012 18.3079C106.516 18.8187 106.906 19.4465 107.184 20.1912C107.47 20.9272 107.613 21.7671 107.613 22.7109C107.613 23.1439 107.565 23.4339 107.47 23.5811C107.374 23.7283 107.201 23.8019 106.949 23.8019H98.4253Z" fill="#1a1a1a"/>
<path d="M113.333 10.9824V30.2052H110.535V10.9824H113.333Z" fill="#1a1a1a"/>
<path d="M119.896 10.9824V30.2052H117.098V10.9824H119.896Z" fill="#1a1a1a"/>
</svg>